This was cut from an XVID file with AVIDeMUX. 																					                                                                 Thanks to the uploader for the original file. 																					                                                                     It includes the avi and an MP3. Enjoy and please share.																					********************************************************************************																												jimmy.kimmel.Sarah Bareilles _SONG_ONLY_2011.06.07.hdtv.xvid.fqm_TTL.avi
Format                           : AVI
Format/Info                      : Audio Video Interleave
File size                        : 63.5 MiB
Duration                         : 3mn 48s
Overall bit rate                 : 2 332 Kbps

Video
ID                               : 0
Format                           : MPEG-4 Visual
Format profile                   : Advanced Simple@L5
Format settings, BVOP            : Yes
Format settings, QPel            : No
Format settings, GMC             : No warppoints
Format settings, Matrix          : Default (H.263)
Codec ID                         : XVID
Codec ID/Hint                    : XviD
Duration                         : 3mn 48s
Bit rate                         : 2 162 Kbps
Width                            : 624 pixels
Height                           : 352 pixels
Display aspect ratio             : 16:9
Frame rate                       : 29.970 fps
Color space                      : YUV
Chroma subsampling               : 4:2:0
Bit depth                        : 8 bits
Scan type                        : Progressive
Bits/(Pixel*Frame)               : 0.328
Stream size                      : 58.9 MiB (93%)
Writing library                  : XviD 1.2.1 (UTC 2008-12-04)

Audio
ID                               : 1
Format                           : MPEG Audio
Format version                   : Version 1
Format profile                   : Layer 3
Codec ID                         : 55
Codec ID/Hint                    : MP3
Duration                         : 3mn 48s
Bit rate mode                    : Variable
Bit rate                         : 164 Kbps
Channel(s)                       : 2 channels
Sampling rate                    : 48.0 KHz
Bit depth                        : 16 bits
Stream size                      : 4.26 MiB (7%)
Alignment                        : Aligned on interleaves
Interleave, duration             : 24 ms (0.72 video frame)

